<?xml version="1.0" standalone="no"?>
<!DOCTYPE svg PUBLIC "-//W3C//DTD SVG 20010904//EN"
 "http://www.w3.org/TR/2001/REC-SVG-20010904/DTD/svg10.dtd">
<svg version="1.0" xmlns="http://www.w3.org/2000/svg"
 width="500.000000pt" height="500.000000pt" viewBox="0 0 500.000000 500.000000"
 preserveAspectRatio="xMidYMid meet">

<g transform="translate(0.000000,500.000000) scale(0.100000,-0.100000)"
fill="#000000" stroke="none">
<path d="M2297 2933 c-4 -3 -7 -59 -7 -124 l0 -118 -32 10 c-80 22 -160 -1
-215 -64 l-32 -36 -3 47 -3 47 -59 3 c-37 2 -62 -1 -66 -8 -5 -9 -16 -8 -38 4
-73 38 -177 5 -219 -69 l-23 -40 0 163 0 162 -65 0 -65 0 0 -110 0 -110 -90 0
-90 0 0 110 0 110 -65 0 -65 0 0 -280 0 -280 65 0 64 0 3 113 3 112 88 3 87 3
0 -116 0 -115 65 0 65 0 0 58 0 57 23 -40 c26 -47 92 -85 147 -85 20 0 53 9
75 20 47 24 45 24 45 5 0 -12 13 -15 60 -15 l60 0 0 50 0 50 40 -44 c48 -52
106 -72 178 -62 26 4 77 7 115 6 l67 -1 0 65 c0 37 4 66 8 66 4 0 37 -29 72
-65 l64 -65 348 0 348 0 0 175 0 175 -60 0 -60 0 0 -120 0 -120 -130 0 c-71 0
-130 2 -130 5 0 6 238 395 250 408 4 4 5 -5 2 -21 -8 -60 63 -100 111 -62 37
29 37 80 1 109 -32 25 -40 26 -77 6 -15 -8 -25 -10 -22 -5 4 6 -80 10 -224 10
l-231 0 0 -55 0 -55 120 0 119 0 -100 -162 c-56 -90 -112 -180 -126 -202 l-25
-39 -69 69 -69 69 82 82 83 83 -81 0 -80 0 -54 -55 c-50 -51 -72 -66 -69 -47
1 4 1 82 0 175 l-1 167 -53 0 c-30 0 -57 -3 -60 -7z m-7 -410 c-1 -73 -4 -103
-10 -92 -7 13 -20 15 -54 12 -38 -5 -48 -2 -70 20 -18 18 -26 37 -26 62 0 25
8 44 26 62 22 22 32 25 71 20 32 -3 46 -1 50 9 11 28 13 11 13 -93z m-425 57
c26 -27 25 -84 -3 -112 -50 -50 -134 -15 -134 56 0 77 81 110 137 56z"/>
<path d="M3277 2933 c-4 -3 -7 -136 -7 -295 l0 -288 60 0 60 0 0 295 0 295
-53 0 c-30 0 -57 -3 -60 -7z"/>
<path d="M3410 2645 l0 -295 60 0 60 0 0 58 0 57 23 -40 c26 -47 92 -85 147
-85 20 0 53 9 75 20 47 24 45 24 45 5 0 -12 13 -15 60 -15 l60 0 0 175 0 175
-64 0 c-36 0 -66 -5 -68 -10 -2 -7 -16 -5 -40 5 -82 34 -173 4 -215 -70 l-23
-40 0 178 0 177 -60 0 -60 0 0 -295z m388 -72 c44 -49 6 -127 -62 -127 -61 0
-100 58 -74 112 27 56 93 64 136 15z"/>
</g>
</svg>
